{"title":"30 Days.Of.Night.Dark.Days.2010.BRRip.XviD.Feel-Free","uid":5849962,"size":1377557218,"categoryP":"video","categoryS":"movies","magnet":"?xt=urn:btih:e2a107530b6b52fbaf258c9aec3daafe9aff89b1&amp;dn=30+Days.Of.Night.Dark.Days.2010.BRRip.XviD.Feel-Free&amp;tr=udp%3A%2F%2Ftracker.openbittorrent.com%3A80&amp;tr=udp%3A%2F%2Fopen.demonii.com%3A1337&amp;tr=udp%3A%2F%2Ftracker.coppersurfer.tk%3A6969&amp;tr=udp%3A%2F%2Fexodus.desync.com%3A6969","seeders":0,"leechers":0,"uploader":"neon","files":-1,"time":1285338277,"description":"Genre:Horror | Thriller\nLanguage:English\n &lt;a href=&quot; http://www.imdb.com/title/tt1320304/&quot; rel=&quot;nofollow&quot; target=&quot;_NEW&quot;&gt; http://www.imdb.com/title/tt1320304/&lt;/a&gt;\nSource:BluRay x264-TWiZTED\n\nGeneral\nComplete name :30.Days.Of.Night.Dark.Days.2010.BRRip.XviD.Feel-Free\nFormat : AVI\nFormat/Info : Audio Video Interleave\nFile size : 1.28 GiB\nDuration : 1h 31mn\nOverall bit rate : 2 006 Kbps\nVideo #0\nMuxing mode : Packed bitstream\nCodec ID : XVID\nCodec ID/Hint : XviD\nDuration : 1h 31mn\nBit rate : 1 548 Kbps\nWidth : 720 pixels\nHeight : 384 pixels\nDisplay aspect ratio : 1.875\nFrame rate : 23.976 fps\nResolution : 24 bits\nColorimetry : 4:2:0\nScan type : Progressive\nBits/(Pixel*Frame) : 0.234\nStream size : 1 014 MiB (77%)\nWriting library : XviD 1.2.1 (UTC 2008-12-04)\nAudio #1\nID : 1\nFormat : AC-3\nFormat/Info : Audio Coding 3\nCodec ID : 2000\nDuration : 1h 31mn\nBit rate mode : Constant\nBit rate : 448 Kbps\nChannel(s) : 6 channels\nChannel positions : Front: L C R, Surround: L R, LFE\nSampling rate : 48.0 KHz\nStream size : 293 MiB (22%)\nAlignment : Split accross interleaves\nInterleave, duration : 42 ms (1.00 video frame)\nInterleave, preload duration : 500 ms\n\nPlot\nAfter surviving the incidents in Barrow, Alaska, Stella Olemaun relocates to Los Angeles, where she intentionally attracts the attention of the local vampire population in order to avenge the death of her husband","torrent":{"xt":"urn:btih:e2a107530b6b52fbaf258c9aec3daafe9aff89b1","amp;dn":"30+Days.Of.Night.Dark.Days.2010.BRRip.XviD.Feel-Free","amp;tr":["udp%3A%2F%2Ftracker.openbittorrent.com%3A80","udp%3A%2F%2Fopen.demonii.com%3A1337","udp%3A%2F%2Ftracker.coppersurfer.tk%3A6969","udp%3A%2F%2Fexodus.desync.com%3A6969"],"infoHash":"e2a107530b6b52fbaf258c9aec3daafe9aff89b1","infoHashBuffer":{"type":"Buffer","data":[226,161,7,83,11,107,82,251,175,37,140,154,236,61,170,254,154,255,137,177]},"announce":[],"urlList":[]}}